<?xml version="1.0" encoding="utf-8"?>
<!-- Generator: Adobe Illustrator 21.0.0, SVG Export Plug-In . SVG Version: 6.00 Build 0)  -->
<svg version="1.1" id="Layer_1" xmlns="http://www.w3.org/2000/svg" xmlns:xlink="http://www.w3.org/1999/xlink" x="0px" y="0px"
	 viewBox="0 0 500 500" style="enable-background:new 0 0 500 500;" xml:space="preserve">
<style type="text/css">
	.st0{fill:#2566AF;}
	.st1{fill:#E6A540;}
	.st2{fill:#FFFFFF;}
	.st3{fill:#FF5F00;}
	.st4{fill:#EB001B;}
	.st5{fill:#F79E1B;}
	.st6{fill:none;}
</style>
<g id="Layer_3">
	<g>
		<path class="st0" d="M220,193.6h-36.8l23-141.6H243L220,193.6z M152.3,52l-35.1,97.4l-4.2-21l0,0l-12.4-63.6
			c0,0-1.5-12.7-17.4-12.7H25.1l-0.6,2.5c0,0,17.8,3.7,38.6,16.2L95,193.7h38.3L191.8,52H152.3z M441.6,193.6h33.9L446.1,52h-29.5
			c-13.7,0-17.1,10.5-17.1,10.5l-54.9,131H383l7.7-21h46.8L441.6,193.6z M401.2,143.6l19.4-53l10.9,53H401.2z M347.5,86.1l5.3-30.4
			c0,0-16.2-6.2-33.1-6.2c-18.3,0-61.7,8-61.7,46.8c0,36.6,50.9,37.1,50.9,56.2c0,19.2-45.7,15.8-60.7,3.7l-5.4,31.8
			c0,0,16.4,8,41.5,8s63-13,63-48.4c0-36.8-51.4-40.3-51.4-56.2C295.8,75.4,331.7,77.3,347.5,86.1L347.5,86.1z"/>
		<path class="st1" d="M113.1,128.1l-12.4-63.5c0,0-1.5-12.7-17.4-12.7H25.2l-0.7,2.3c0,0,27.9,5.8,54.7,27.4
			C104.7,102.4,113.1,128.1,113.1,128.1z"/>
	</g>
</g>
<g id="Layer_2">
</g>
<g id="Layer_1_1_">
	<g>
		<rect x="193.6" y="279.2" class="st2" width="93.4" height="93.4"/>
		<path d="M286.5,279.6v92.5H194v-92.5H286.5 M287.3,278.8h-94.2v94.2h94.2V278.8L287.3,278.8z"/>
	</g>
	<path class="st3" d="M294.8,433.1H192.9V250h101.9V433.1z"/>
	<path class="st4" d="M199.4,341.5c0-37.1,17.4-70.3,44.5-91.6c-20.5-16.2-45.9-25-72-24.9c-64.3,0-116.4,52.1-116.4,116.4
		S107.6,458,171.9,458c26.1,0,51.5-8.7,72-24.9C216.7,411.7,199.4,378.6,199.4,341.5"/>
	<path class="st5" d="M432.3,341.5c0,64.3-52.1,116.4-116.4,116.4c-26.1,0-51.5-8.7-72-24.9c27.1-21.3,44.5-54.4,44.5-91.6
		s-17.4-70.3-44.5-91.6c20.5-16.2,45.9-25,72-24.9C380.1,225.1,432.3,277.2,432.3,341.5"/>
</g>
<g id="Layer_2_1_">
	<rect x="46.9" y="126.8" class="st6" width="408" height="408"/>
</g>
</svg>
