<svg width="59" height="63" viewBox="0 0 59 63" fill="none" xmlns="http://www.w3.org/2000/svg">
    <path d="M12.4568 8.8975C19.321 5.64435 27.5756 8.61083 30.8149 15.4793C34.048 22.3348 31.0799 30.5565 24.2417 33.7973C17.3775 37.0505 9.12285 34.084 5.88358 27.2155C2.65045 20.3601 5.60557 12.1445 12.4568 8.8975Z" fill="white" fill-opacity="0.35"/>
    <path d="M13.9195 12.0168C19.0709 9.57544 25.2478 11.7791 27.6885 16.9291C30.1293 22.0791 27.9177 28.2424 22.7533 30.69C17.6149 33.1252 11.4448 30.9024 8.9979 25.7395C6.57562 20.6284 8.79401 14.4459 13.9195 12.0168Z" fill="white"/>
    <path d="M18.0526 17.7799C17.6659 17.3338 16.9178 17.4319 16.4792 17.8379C16.0165 18.267 15.9261 18.9392 16.2545 19.4596C16.5784 19.9705 17.2535 20.1867 17.821 19.9294C21.6117 18.2378 24.9607 22.6415 22.419 25.711C22.22 25.9568 22.1832 26.1257 22.3377 26.4022C22.5011 26.6978 22.7809 27.0663 22.714 27.3195C22.6364 27.6243 22.1399 27.6615 21.834 27.8298C21.4854 28.0066 21.1138 28.1595 20.7698 28.3458C20.5834 28.4458 20.4615 28.4103 20.4139 28.2114C20.1962 27.3822 19.6979 27.0705 18.7973 27.0194C17.6799 26.9546 16.8506 26.2404 16.2293 25.2993C16.0924 25.0845 16.0765 24.9522 16.3577 24.8305C16.9392 24.5782 17.5073 24.2974 18.0753 24.0165C18.2566 23.9306 18.351 23.9325 18.4934 24.1097C18.9578 24.6705 19.6827 24.7699 20.2247 24.3848C21.4237 23.5369 20.4765 21.5381 18.8985 22.2277C17.2729 22.9398 15.3244 22.453 14.3209 21.0753C13.2392 19.6066 13.2954 17.7034 14.4924 16.3086C14.6426 16.1325 14.6357 16.0192 14.555 15.8243C14.3977 15.4676 14.0004 15.0731 14.1487 14.7697C14.3116 14.4478 14.7835 14.4572 16.0828 13.7715C16.7659 13.4128 16.0327 14.9725 18.0553 15.0979C19.1727 15.1627 20.002 15.877 20.6233 16.818C20.7602 17.0329 20.7852 17.1842 20.4949 17.2868C19.0049 17.8414 18.6741 18.4994 18.0526 17.7799Z" fill="#4A517D"/>
    <circle cx="39" cy="19" r="19" fill="#FEBC00"/>
    <path fill-rule="evenodd" clip-rule="evenodd" d="M34.6213 23.1237C34.5626 23.3426 34.2263 23.7218 33.6789 23.5752L32.2558 23.1938L31.3113 25.4048L33.8293 26.0795C34.2672 26.1968 34.8145 26.3435 35.2524 26.4608L34.3724 29.7451L36.343 30.2731L37.1937 27.0983C37.741 27.245 38.2884 27.3916 38.7263 27.509L37.8756 30.6837L39.8462 31.2117L40.7262 27.9275C44.0691 28.5886 46.5734 28.4382 47.7232 25.461C48.6168 23.0017 47.7059 21.5843 46.0716 20.677C47.3131 20.423 48.3727 19.5336 48.5938 17.8328C48.9908 15.4752 47.2256 14.1808 44.7664 13.2872L45.617 10.1124L43.537 9.55509L42.7157 12.6204C42.1683 12.4737 41.7304 12.3564 41.183 12.2097L42.0337 9.03495L40.0338 8.61642L39.1832 11.7912C38.7453 11.6739 38.3074 11.5565 37.9789 11.4685L35.2421 10.7352L34.6847 12.8152L36.1079 13.1965C36.8742 13.4019 37.0853 13.9278 36.968 14.3657L34.6213 23.1237ZM43.8701 24.0765C43.2247 26.485 39.1234 25.1513 37.8097 24.7993L38.9537 20.5298C40.2967 20.7723 44.5447 21.5586 43.8701 24.0765ZM44.6076 17.8207C44.021 20.0102 40.5764 18.8526 39.4817 18.5593L40.5377 14.6182C41.6324 14.9115 45.2236 15.5218 44.6076 17.8207Z" fill="#F98600"/>
    <path fill-rule="evenodd" clip-rule="evenodd" d="M32.757 21.5928C32.6983 21.8117 32.3621 22.191 31.8147 22.0443L30.3915 21.6629L29.4471 23.8739L31.965 24.5486C32.4029 24.6659 32.9503 24.8126 33.3882 24.9299L32.5082 28.2142L34.4787 28.7422L35.3294 25.5674C35.8768 25.7141 36.4241 25.8608 36.862 25.9781L36.0114 29.1529L37.9819 29.6809L38.8619 26.3966C42.2048 27.0577 44.7091 26.9074 45.8589 23.9301C46.7525 21.4708 45.8416 20.0534 44.2074 19.1462C45.4488 18.8921 46.5085 18.0027 46.7295 16.3019C47.1266 13.9443 45.3614 12.6499 42.9021 11.7563L43.7528 8.58155L41.6728 8.02421L40.8514 11.0895C40.3041 10.9428 39.8662 10.8255 39.3188 10.6788L40.1695 7.50406L38.1696 7.08553L37.3189 10.2603C36.881 10.143 36.4431 10.0256 36.1147 9.93763L33.3778 9.20429L32.8205 11.2843L34.2436 11.6656C35.01 11.871 35.221 12.3969 35.1037 12.8348L32.757 21.5928ZM42.0058 22.5456C41.3605 24.9541 37.2591 23.6204 35.9454 23.2684L37.0894 18.9989C38.4324 19.2415 42.6805 20.0277 42.0058 22.5456ZM42.7434 16.2898C42.1567 18.4793 38.7122 17.3217 37.6174 17.0284L38.6734 13.0873C39.7682 13.3806 43.3594 13.9909 42.7434 16.2898Z" fill="white"/>
    <path d="M30.9707 62.4276C23.0881 62.4276 15.2054 62.4276 7.30441 62.4276C5.06793 62.4276 3.39974 61.1077 2.97811 59.0362C2.92312 58.7246 2.90479 58.3946 2.90479 58.083C2.90479 47.7072 2.92312 40.3314 2.90479 29.9556C2.90479 29.479 2.99644 29.2407 3.52807 29.2957C3.78471 29.3324 4.04136 29.2957 4.298 29.259C4.97628 29.149 5.37957 28.6724 5.37957 28.0308C5.37957 27.3892 4.93961 26.9126 4.27967 26.8026C4.07802 26.7659 3.85804 26.7842 3.63806 26.7842C2.84979 26.7842 2.84979 26.7842 3.0881 25.996C3.58306 24.3278 5.12293 23.1545 6.91944 23.0446C7.0661 23.0446 7.21275 23.0446 7.37774 23.0446C23.0697 23.0446 38.7801 23.0446 54.4904 23.0446C56.6536 23.0446 58.2301 24.1628 58.7984 26.051C59 26.7659 59 26.7659 58.2851 26.7842C57.9734 26.7842 57.6435 26.7476 57.3318 26.8759C56.7635 27.0959 56.4519 27.5175 56.4886 28.1225C56.5252 28.7091 56.8552 29.1307 57.4602 29.2407C57.6985 29.2774 57.9368 29.3324 58.1568 29.2957C58.8717 29.1857 59 29.5157 58.9817 30.1573C58.945 32.5587 58.945 34.9785 58.9817 37.38C58.9817 37.8933 58.835 38.0216 58.3401 38.0216C54.2154 38.0033 42.2178 38.0033 38.0931 38.0216C34.1151 38.0399 30.8704 40.6981 30.0638 44.6027C29.1289 49.0757 32.4469 53.622 36.9749 54.1536C37.9831 54.2636 38.9914 54.2269 39.9996 54.2269C43.501 54.2452 54.8754 54.2452 58.3767 54.2269C58.8534 54.2269 59 54.3552 58.9817 54.8319C58.9634 56.9033 58.9817 55.9565 58.9634 58.028C58.945 60.7044 57.1668 62.446 54.4904 62.446C47.7993 62.446 41.1265 62.446 34.4354 62.446C33.2989 62.4276 32.144 62.4276 30.9707 62.4276Z" fill="#4A517D"/>
    <path d="M52.1197 51.1427C50.1967 51.1427 40.6969 51.1587 38.7739 51.1427C36.0217 51.1266 33.7282 49.2643 33.4459 46.8883C33.146 44.2554 34.9102 42.0078 37.6977 41.4619C38.1917 41.3656 38.7209 41.3335 39.2326 41.3335C43.0609 41.3174 54.4661 41.3335 58.2945 41.3174C58.8237 41.3174 59.0001 41.4298 59.0001 41.9436C58.9825 44.8173 58.9825 47.707 59.0001 50.5808C59.0001 51.0142 58.8766 51.1587 58.3827 51.1587C56.3009 51.1266 54.2015 51.1427 52.1197 51.1427Z" fill="#4A517D"/>
    <path d="M11.429 26.7843C12.1807 26.7843 12.9323 26.7843 13.6839 26.7843C14.5455 26.8026 15.1137 27.2976 15.1504 28.0125C15.1687 28.7091 14.6371 29.2591 13.8122 29.2774C12.254 29.3141 10.6774 29.3141 9.10091 29.2774C8.23932 29.2591 7.78103 28.7458 7.79936 27.9942C7.81769 27.2609 8.33098 26.8026 9.17424 26.7843C9.92584 26.7659 10.6774 26.7843 11.429 26.7843Z" fill="white"/>
    <path fill-rule="evenodd" clip-rule="evenodd" d="M2.90479 29.297C3.26987 29.2925 3.63419 29.2859 3.99751 29.2774C4.82244 29.259 5.35406 28.7091 5.33573 28.0125C5.29907 27.2975 4.73078 26.8026 3.86919 26.7843H2.90479V29.297Z" fill="white"/>
    <path fill-rule="evenodd" clip-rule="evenodd" d="M59 26.7791C58.4604 26.783 57.9223 26.7913 57.3863 26.8039C56.5614 26.8222 56.0297 27.3722 56.0481 28.0688C56.0847 28.7837 56.653 29.2787 57.5146 29.297L59 29.297L59 26.7791Z" fill="white"/>
    <path d="M21.1815 26.7843C21.9514 26.7843 22.7213 26.7659 23.5096 26.7843C24.3345 26.8026 24.8662 27.2792 24.8662 28.0125C24.8662 28.7274 24.4079 29.2407 23.6013 29.2774C22.0064 29.3141 20.4299 29.3141 18.835 29.2774C18.0101 29.2591 17.4968 28.6908 17.5151 27.9942C17.5518 27.2976 18.1201 26.8026 18.9267 26.7843C19.6783 26.7659 20.4299 26.7843 21.1815 26.7843Z" fill="white"/>
    <path d="M30.9341 29.2956C30.1825 29.2956 29.4309 29.314 28.6793 29.2956C27.7811 29.259 27.2678 28.8007 27.2861 28.0307C27.2861 27.2608 27.8361 26.7842 28.7527 26.7842C30.2192 26.7842 31.6674 26.7842 33.134 26.7842C34.0322 26.7842 34.6188 27.2975 34.6188 28.0491C34.6188 28.764 34.0689 29.2406 33.189 29.2956C33.1523 29.2956 33.0973 29.2956 33.0606 29.2956C32.3457 29.2956 31.6491 29.2956 30.9341 29.2956Z" fill="white"/>
    <path d="M40.6683 29.2956C39.9351 29.2956 39.2018 29.314 38.4685 29.2956C37.5519 29.259 36.9836 28.764 36.9836 28.0307C37.002 27.2975 37.5886 26.8025 38.4869 26.7842C39.9534 26.7842 41.4016 26.7842 42.8681 26.7842C43.7664 26.7842 44.298 27.2425 44.3164 27.9941C44.3347 28.7823 43.8214 29.259 42.9048 29.314C42.8681 29.314 42.8131 29.314 42.7765 29.314C42.0799 29.2956 41.3649 29.2956 40.6683 29.2956Z" fill="white"/>
    <path d="M50.3841 26.7842C51.154 26.7842 51.924 26.7659 52.7122 26.7842C53.5188 26.8025 54.0871 27.2975 54.1055 27.9941C54.1238 28.6907 53.6105 29.259 52.7672 29.2773C51.209 29.314 49.6325 29.314 48.056 29.2773C47.2127 29.259 46.7361 28.7457 46.7361 27.9941C46.7544 27.2608 47.2677 26.7842 48.111 26.7659C48.8809 26.7659 49.6325 26.7842 50.3841 26.7842Z" fill="white"/>
    <path d="M40.3017 46.2257C40.3099 47.2985 39.4105 48.2063 38.3377 48.2063C37.2897 48.2063 36.382 47.3068 36.3655 46.2504C36.349 45.2024 37.2567 44.2781 38.3129 44.2698C39.3857 44.2616 40.2934 45.1446 40.3017 46.2257Z" fill="white"/>
</svg>
