<svg width="62" height="61" viewBox="0 0 62 61" fill="none" xmlns="http://www.w3.org/2000/svg">
<path d="M42.7359 24.3966C52.8263 24.3966 61.0342 32.6192 61.0342 42.7068C61.0342 52.7943 52.8093 61 42.719 61C32.6286 61 24.4207 52.7774 24.4207 42.6898C24.4207 32.6023 32.6456 24.3966 42.7359 24.3966Z" fill="#FFB800"/>
<path d="M16.2803 0C25.2513 0 32.5605 7.34102 32.5435 16.3096C32.5266 25.2613 25.2005 32.5345 16.2633 32.5345C7.29222 32.5345 -0.0169291 25.1934 2.94508e-05 16.2248C0.016988 7.27321 7.32613 0 16.2803 0Z" fill="white" fill-opacity="0.35"/>
<path d="M48.8241 15.2585C48.7732 13.97 48.9598 12.6815 48.7224 11.4099C48.3493 9.46024 46.7382 8.13784 44.771 8.12089C42.2442 8.10393 39.7343 8.10393 37.2075 8.12089C36.7326 8.12089 36.597 7.98526 36.6139 7.5275C36.7326 4.27236 36.3596 4.03501 37.0549 4.05196C39.8021 4.06891 42.5664 3.98414 45.3137 4.08587C49.3668 4.2215 52.8094 7.83267 52.8942 11.9016C52.9111 13.0206 52.8942 14.1395 52.8942 15.2585C52.962 15.3093 53.0129 15.3602 53.0807 15.411C53.5895 14.8516 54.0982 14.309 54.5731 13.7326C54.8274 13.4444 54.997 13.4444 55.2684 13.7326C57.6256 16.2248 57.9817 16.1062 57.473 16.5978C55.3701 18.6831 53.2673 20.7854 51.1813 22.8877C50.927 23.142 50.7913 23.159 50.52 22.9047C48.4341 20.8024 46.3312 18.7001 44.2283 16.6148C43.9909 16.3774 43.94 16.2248 44.2114 15.9536C46.7552 13.5292 46.6195 13.207 47.1113 13.7326C47.62 14.2751 48.1288 14.8007 48.6545 15.3263C48.7224 15.3093 48.7732 15.2924 48.8241 15.2585Z" fill="white"/>
<path d="M10.1585 43.7071C10.2263 44.9955 10.0228 46.284 10.2602 47.5556C10.6333 49.4883 12.2444 50.8107 14.2285 50.8277C16.7214 50.8446 19.2313 50.8446 21.7242 50.8107C22.2669 50.8107 22.4025 50.9633 22.3686 51.4889C22.233 54.5406 22.64 54.9136 21.9277 54.8966C19.1804 54.8796 16.4162 54.9644 13.6689 54.8627C9.61578 54.7101 6.1732 51.0989 6.0884 47.047C6.07144 45.928 6.0884 44.8091 6.0884 43.4867C5.44398 44.1479 4.9013 44.6734 4.39254 45.2329C4.12121 45.5381 3.95162 45.5042 3.68028 45.2159C1.34 42.7407 1.01779 42.8763 1.52655 42.3677C3.62941 40.2824 5.73227 38.1801 7.81818 36.0778C8.07255 35.8235 8.22518 35.8235 8.47956 36.0778C10.5485 38.197 12.6514 40.2993 14.7542 42.3847C15.0086 42.639 15.0256 42.7915 14.7542 43.0459C12.2444 45.4533 12.3292 45.7754 11.8882 45.3007C11.3795 44.7412 10.8368 44.1987 10.3111 43.6562C10.2772 43.6562 10.2093 43.6901 10.1585 43.7071Z" fill="white"/>
<path d="M42.7359 28.4655C50.5708 28.4655 56.9642 34.8571 56.9642 42.6897C56.9642 50.5563 50.5538 56.9479 42.685 56.931C34.8502 56.914 28.4907 50.5055 28.4907 42.6728C28.4907 34.8571 34.8841 28.4655 42.7359 28.4655Z" fill="#FFB800"/>
<path d="M16.2635 4.06891C22.9961 4.06891 28.4737 9.54501 28.4737 16.2757C28.4737 23.0064 22.9961 28.4655 16.2466 28.4655C9.53097 28.4655 4.07031 22.9725 4.07031 16.2248C4.07031 9.54501 9.56489 4.06891 16.2635 4.06891Z" fill="#4A517D"/>
<path d="M44.6094 41.5671C44.3878 40.844 43.3836 40.5493 42.586 40.777C41.7442 41.0181 41.2273 41.7412 41.3307 42.5179C41.4341 43.2813 42.1577 43.8973 43.0291 43.9107C48.8333 44.0312 50.4283 50.9146 45.3774 53.0573C44.9786 53.2314 44.8309 53.4055 44.8605 53.8073C44.89 54.2358 45.0229 54.8117 44.7866 55.0661C44.506 55.3741 43.8562 55.1465 43.3688 55.1733C42.8223 55.1866 42.2611 55.1599 41.7147 55.1866C41.4193 55.2 41.2864 55.0929 41.3455 54.8385C41.567 53.7671 41.1239 53.1377 40.0162 52.5886C38.6427 51.9056 38.0224 50.6334 37.8009 49.2139C37.7566 48.8925 37.8157 48.7318 38.244 48.7452C39.1301 48.7719 40.0162 48.7586 40.9024 48.7452C41.183 48.7452 41.3011 48.7987 41.375 49.08C41.6261 49.9772 42.4827 50.4861 43.3983 50.3388C45.4217 50.0174 45.4217 47.2051 43.0143 47.1381C40.5332 47.0712 38.3621 45.4508 37.9191 43.3215C37.4317 41.0448 38.6427 38.8887 40.991 37.9379C41.2864 37.8174 41.3454 37.6835 41.3602 37.4156C41.375 36.9201 41.1091 36.2506 41.4784 35.9827C41.8771 35.7015 42.4679 35.9693 44.5208 35.889C45.5989 35.8488 43.738 37.2415 46.2192 38.487C47.5927 39.17 48.213 40.4422 48.4345 41.8617C48.4788 42.1831 48.4198 42.3706 47.9915 42.3305C45.7761 42.1564 44.9638 42.7322 44.6094 41.5671Z" fill="#F98600"/>
<path d="M43.9893 38.9462C43.7879 38.1869 42.8749 37.8775 42.1499 38.1166C41.3846 38.3697 40.9147 39.129 41.0087 39.9446C41.1027 40.7461 41.7605 41.3929 42.5527 41.407C47.8292 41.5335 49.2793 48.7611 44.6875 51.0109C44.325 51.1937 44.1907 51.3765 44.2176 51.7984C44.2444 52.2483 44.3652 52.853 44.1504 53.1202C43.8953 53.4436 43.3046 53.2045 42.8615 53.2326C42.3647 53.2467 41.8545 53.2186 41.3578 53.2467C41.0892 53.2608 40.9684 53.1483 41.0221 52.8811C41.2235 51.7562 40.8207 51.0953 39.8137 50.5188C38.5651 49.8017 38.0012 48.4658 37.7998 46.9753C37.7595 46.6378 37.8132 46.4691 38.2026 46.4832C39.0082 46.5113 39.8137 46.4972 40.6193 46.4832C40.8744 46.4832 40.9818 46.5394 41.049 46.8347C41.2772 47.7768 42.0559 48.3111 42.8884 48.1565C44.7278 47.819 44.7278 44.8661 42.5393 44.7958C40.2837 44.7255 38.31 43.024 37.9072 40.7883C37.4641 38.3978 38.5651 36.1339 40.6999 35.1356C40.9684 35.009 41.0221 34.8684 41.0355 34.5872C41.049 34.0669 40.8073 33.3638 41.1429 33.0826C41.5054 32.7873 42.0425 33.0685 43.9088 32.9842C44.8889 32.942 43.1972 34.4044 45.4528 35.7121C46.7014 36.4292 47.2653 37.765 47.4667 39.2556C47.507 39.593 47.4533 39.7899 47.0639 39.7477C45.05 39.5649 44.3115 40.1696 43.9893 38.9462Z" fill="white"/>
<path d="M8.14037 14.6651C8.12342 14.326 8.25908 14.2073 8.5813 14.2243C9.00526 14.2412 9.42923 14.1904 9.85319 14.2412C10.328 14.2921 10.5146 14.0887 10.6672 13.6648C12.3122 9.03641 16.908 7.32407 20.6049 8.49388C20.9441 8.59561 21.0967 8.68038 20.9271 9.08727C19.6722 12.0203 19.9266 12.495 19.2143 12.3255C16.6875 11.6982 14.8221 13.8683 14.9408 14.1395C15.0086 14.2921 15.1612 14.2412 15.2799 14.2412C16.077 14.2412 16.891 14.2582 17.6881 14.2412C18.1459 14.2243 18.3325 14.326 18.3155 14.8346C18.1968 17.988 18.6038 18.3441 17.8068 18.3271C16.9588 18.3102 16.1109 18.3102 15.263 18.3271C15.1443 18.3271 14.9747 18.2763 14.9408 18.4458C14.9238 18.5136 15.0086 18.6323 15.0595 18.7171C16.1448 20.0225 17.5015 20.6498 19.1974 20.2429C19.8587 20.0903 19.6044 20.3785 20.8932 23.4981C21.0458 23.8541 20.978 23.9728 20.6219 24.0745C16.2805 25.346 12.0748 23.0742 10.5824 18.7849C10.2432 17.7846 8.75088 18.8357 8.24213 18.2084C7.86904 17.6998 8.22517 17.4116 8.14037 14.6651Z" fill="white"/>
</svg>