<svg id="bfeff0af-5349-4493-bfeb-4597ab12107c" data-name="Layer 1" xmlns="http://www.w3.org/2000/svg" viewBox="0 0 63 63"><circle cx="41.66111" cy="23.75378" r="21.33889" fill="#ccc" opacity="0.23"/><path d="M30.4836,27.9606h6.3895v9.87274L50.80635,20.41673h-6.3895V10.544ZM39.387,25.44668H35.71673l6.1862-7.73279v5.21676h3.67029L39.387,30.66357Z" fill="#ffb800" fill-rule="evenodd"/><path d="M20.61572,27.13635a19.29541,19.29541,0,0,0-3.76465-.33416H6.04144a1.54152,1.54152,0,0,0-1.52826,1.29663L.01172,56.45105a.92353.92353,0,0,0,.9165,1.067h6.674L9.27686,46.95837l1.80261-11.34228a1.35288,1.35288,0,0,1,1.3352-1.134h8.47455a18.02949,18.02949,0,0,1,2.44617.16345A21.16581,21.16581,0,0,1,20.61572,27.13635Z" fill="#253b80"/><path d="M23.33411,34.64337a18.06666,18.06666,0,0,0-2.44489-.16321H12.41467a1.35217,1.35217,0,0,0-1.3352,1.13593L9.27686,46.95837l-.05085.32917A1.53527,1.53527,0,0,1,10.74817,45.993h3.17035c5.63482,0,10.15411-2.07056,12.023-7.84442A21.37429,21.37429,0,0,1,23.33411,34.64337Z" fill="#222d65"/><path d="M25.94159,38.14868C24.07288,43.924,19.55347,45.993,13.91852,45.993H10.74817A1.53527,1.53527,0,0,0,9.226,47.28754L7.60016,57.518l-.45923,2.90008a.80757.80757,0,0,0,.80066.9328H13.567a1.351,1.351,0,0,0,1.33728-1.134l.05481-.28259,1.06085-6.678.06708-.36591a1.35079,1.35079,0,0,1,1.33728-1.13592h.8413c5.45063,0,9.71637-2.199,10.96412-8.55793a12.797,12.797,0,0,0,.237-1.94549A21.425,21.425,0,0,1,25.94159,38.14868Z" fill="#179bd7"/></svg>