<svg id="fa4fe232-a3d9-40a0-bd52-4e905a35ac52" data-name="Layer 1" xmlns="http://www.w3.org/2000/svg" viewBox="0 0 63 63"><path d="M20.61572,27.13635a19.29541,19.29541,0,0,0-3.76465-.33416H6.04144a1.54152,1.54152,0,0,0-1.52826,1.29663L.01172,56.45105a.92353.92353,0,0,0,.9165,1.067h6.674L9.27686,46.95837l1.80261-11.34228a1.35288,1.35288,0,0,1,1.3352-1.134h8.47455a18.02949,18.02949,0,0,1,2.44617.16345A21.16581,21.16581,0,0,1,20.61572,27.13635Z" fill="#253b80"/><path d="M23.33411,34.64337a18.06666,18.06666,0,0,0-2.44489-.16321H12.41467a1.35217,1.35217,0,0,0-1.3352,1.13593L9.27686,46.95837l-.05085.32917A1.53527,1.53527,0,0,1,10.74817,45.993h3.17035c5.63482,0,10.15411-2.07056,12.023-7.84442A21.37429,21.37429,0,0,1,23.33411,34.64337Z" fill="#222d65"/><path d="M25.94159,38.14868C24.07288,43.924,19.55347,45.993,13.91852,45.993H10.74817A1.53527,1.53527,0,0,0,9.226,47.28754L7.60016,57.518l-.45923,2.90008a.80757.80757,0,0,0,.80066.9328H13.567a1.351,1.351,0,0,0,1.33728-1.134l.05481-.28259,1.06085-6.678.06708-.36591a1.35079,1.35079,0,0,1,1.33728-1.13592h.8413c5.45063,0,9.71637-2.199,10.96412-8.55793a12.797,12.797,0,0,0,.237-1.94549A21.425,21.425,0,0,1,25.94159,38.14868Z" fill="#179bd7"/><circle cx="41.66111" cy="23.75378" r="21.33889" fill="#ccc" opacity="0.23"/><path d="M51.81828,17.73423a.50552.50552,0,0,0-.05482-.27648c0-.05483,0-.05483-.05694-.11176-.05489-.10965-.05489-.1646-.10971-.22154v-.05482l-2.99557-4.05029a1.1599,1.1599,0,0,0-.88813-.44307H35.621a1.15969,1.15969,0,0,0-.88807.44307l-2.99557,4.05029c-.05489.11176-.10977.16671-.16665.27636v.05693a.70423.70423,0,0,0-.05488.33131V31.824a3.10072,3.10072,0,0,0,3.10733,3.10733H48.713A3.10024,3.10024,0,0,0,51.81828,31.824Zm-15.6424-2.88381h10.9824l1.33114,1.83108H34.84474ZM48.713,32.71209H34.62321a.8763.8763,0,0,1-.88807-.88813V18.84377H49.656V31.824A.92521.92521,0,0,1,48.713,32.71209Z" fill="#02c463"/><path d="M45.71743,20.67485a1.11246,1.11246,0,0,0-1.10967,1.10967A2.84236,2.84236,0,0,1,41.722,24.66833a2.95872,2.95872,0,0,1-2.9387-2.93864,1.10961,1.10961,0,1,0-2.21921,0A5.18334,5.18334,0,0,0,41.722,26.88753a5.07735,5.07735,0,0,0,3.60727-1.49778A5.17339,5.17339,0,0,0,46.827,21.78452,1.11373,1.11373,0,0,0,45.71743,20.67485Z" fill="#02c463"/></svg>