<svg id="a005088a-595a-4ad0-9d15-6e1091f0821d" data-name="Layer 1" xmlns="http://www.w3.org/2000/svg" viewBox="0 0 63 63"><path d="M20.61572,26.13635a19.29541,19.29541,0,0,0-3.76465-.33416H6.04144a1.54152,1.54152,0,0,0-1.52826,1.29663L.01172,55.45105a.92353.92353,0,0,0,.9165,1.067h6.674L9.27686,45.95837l1.80261-11.34228a1.35288,1.35288,0,0,1,1.3352-1.134h8.47455a18.02949,18.02949,0,0,1,2.44617.16345A21.16581,21.16581,0,0,1,20.61572,26.13635Z" fill="#253b80"/><path d="M23.33411,33.64337a18.06666,18.06666,0,0,0-2.44489-.16321H12.41467a1.35217,1.35217,0,0,0-1.3352,1.13593L9.27686,45.95837l-.05085.32917A1.53527,1.53527,0,0,1,10.74817,44.993h3.17035c5.63482,0,10.15411-2.07056,12.023-7.84442A21.37429,21.37429,0,0,1,23.33411,33.64337Z" fill="#222d65"/><path d="M25.94159,37.14868C24.07288,42.924,19.55347,44.993,13.91852,44.993H10.74817A1.53527,1.53527,0,0,0,9.226,46.28754L7.60016,56.518l-.45923,2.90008a.80757.80757,0,0,0,.80066.9328H13.567a1.351,1.351,0,0,0,1.33728-1.134l.05481-.28259,1.06085-6.678.06708-.36591a1.35079,1.35079,0,0,1,1.33728-1.13592h.8413c5.45063,0,9.71637-2.199,10.96412-8.55793a12.797,12.797,0,0,0,.237-1.94549A21.425,21.425,0,0,1,25.94159,37.14868Z" fill="#179bd7"/><circle cx="41.66111" cy="22.25121" r="21.33889" fill="#ccc" opacity="0.23"/><path d="M41.66521,36.37554Q30.48362,31.39434,30.4836,26.4357V14.01035c0-.95313.3658-1.17467,1.37989-1.78842h0c.30489-.18494.67273-.40648,1.10557-.695a19.89242,19.89242,0,0,1,8.69615-2.48552,16.08732,16.08732,0,0,1,8.69813,2.48552c.43284.28851.79863.51,1.10551.695,1.01211.61375,1.37995.83529,1.37995,1.78842.02437.27028.01215,6.01148.004,9.6858v.00409c-.002,1.25182-.004,2.26188-.004,2.73546Q52.8488,31.40463,41.66521,36.37554Zm8.69813-9.93984c0-.28653,0-.76619.002-1.54666l.00409-2.42647.004-2.10347c.00614-2.77193.00409-5.15177.00205-5.88943l-.17068-.10569h0c-.40239-.25006-.92677-.57319-1.21938-.77029a13.60035,13.60035,0,0,0-7.32023-2.06675A16.681,16.681,0,0,0,34.347,13.59369c-.29466.1971-.817.52234-1.21938.77029l-.15852.09961V26.4357c0,1.87375,2.77,4.43444,8.69813,7.20848C47.59538,30.87622,50.36334,28.31752,50.36334,26.4357Zm-4.60716-8.3324L40.42344,23.436l-2.8492-2.84921-1.75592,1.7579,4.60512,4.60512,7.09063-7.09064Z" fill="#00a3ff" fill-rule="evenodd"/></svg>