<svg id="ad29f9fe-f1a3-44d8-8de9-25664489946c" data-name="Layer 1" xmlns="http://www.w3.org/2000/svg" viewBox="0 0 63 63"><path d="M41.677,36.96357A13.20979,13.20979,0,1,1,54.88675,23.75378,13.20937,13.20937,0,0,1,41.677,36.96357Zm0-2.40216A10.80763,10.80763,0,1,0,30.86934,23.75378,10.80771,10.80771,0,0,0,41.677,34.56141ZM47.6823,22.5527H42.878V17.74837H40.47588V22.5527H35.67161v2.40216h4.80427v4.80433H42.878V24.95486H47.6823Z" fill="#12adc2" fill-rule="evenodd"/><circle cx="41.67696" cy="23.75378" r="21.33889" fill="#ccc" opacity="0.23"/><path d="M11.78612,58.9693a2.70742,2.70742,0,0,1-1.48431-.39826c-.01739-.0116-.03332-.02319-.04925-.03619a1.64845,1.64845,0,0,1-.54883-1.08612,13.44108,13.44108,0,0,1-.08832-2.511V51.84753a13.11778,13.11778,0,0,1-2.69635-.13184L6.8814,54.90588a17.52559,17.52559,0,0,1-.1347,2.51538c-.08832,1.11212-.837,1.47705-1.89124,1.548l-.6748.08831a.59051.59051,0,0,0,.04638.83844c1.39307-.08545,2.65143-.13324,4.04883-.13324,1.49011,0,2.87885.06519,4.36463.13324a.82371.82371,0,0,0,.181-.39679.57308.57308,0,0,0-.1361-.44165Z" fill="#e20613"/><path d="M17.20635,39.45538A9.29281,9.29281,0,0,0,14.42168,38.439a21.97968,21.97968,0,0,0-3.6391-.26446c-1.3482,0-2.5617,0-3.63909.04388-1.07886.0448-2.06641.0885-2.92084.1767a.46366.46366,0,0,0-.22449.39819.44653.44653,0,0,0,.181.4411l1.16718.13062a1.733,1.733,0,0,1,1.07885.39813,1.3228,1.3228,0,0,1,.40406.97021c.04486.48511.08978,1.19178.08978,2.11713V49.377q1.34675.06738,2.69635,0V40.38a1.61392,1.61392,0,0,1,.08832-.83789.58689.58689,0,0,1,.44891-.30774,9.99076,9.99076,0,0,1,1.30328-.04431,5.57283,5.57283,0,0,1,3.95331,1.4115,5.232,5.232,0,0,1,1.34821,3.794,5.303,5.303,0,0,1-1.07739,3.571,5.21549,5.21549,0,0,1-3.01062,1.76379,23.742,23.742,0,0,1-5.61573.39673C4.89605,50.08514,2.56023,49.952,0,49.68835c2.831.572,4.94238.96881,6.29053,1.10059a23.66163,23.66163,0,0,0,6.37891-.08686,13.34,13.34,0,0,0,2.831-.70526,15.88822,15.88822,0,0,0,2.47046-1.41333,4.877,4.877,0,0,0,1.3482-1.67547,6.9594,6.9594,0,0,0,.5387-2.55878,6.13509,6.13509,0,0,0-.808-2.91071A5.65532,5.65532,0,0,0,17.20635,39.45538Z" fill="#e20613"/><path d="M46.6231,58.76941a1.71826,1.71826,0,0,1-1.06146-.39094,1.389,1.389,0,0,1-.43878-.82257,12.049,12.049,0,0,1-.08979-1.38726c-.08978-1.60883-.15063-3.24518-.19409-4.8584-.04486-1.73194-.13318-3.37549-.17663-4.93079V44.956a21.42386,21.42386,0,0,1-2.49592.20813l.07325,10.90607a8.7919,8.7919,0,0,1-.04492,1.59869.86457.86457,0,0,1-.42572.75446c-.17811.21575-.53144.3012-1.10492.34607l-.97022.08691a.43684.43684,0,0,0-.08832.433.52658.52658,0,0,0,.17664.38953c.6618-.04346,1.367-.08685,2.02881-.13031H45.608q.99051.06519,1.98682.13031A.42028.42028,0,0,0,47.77,59.2893a.4959.4959,0,0,0-.08838-.433Z" fill="#e20613"/><path d="M40.7409,45.33825c.03393-.06665.06677-.126.10064-.19159-.45257-.01751-.90814-.02368-1.353-.069l-2.80231,5.539A49.1885,49.1885,0,0,1,34.17669,55.433h-.08838c-.779-1.44519-1.49878-2.944-2.20544-4.42535l-3.74482-7.35639c-.4851-1.03827-.92682-2.03314-1.27868-2.9411a6.92592,6.92592,0,0,1-.39655-1.90912c-.1286-.1308-.24487-.27307-.37-.40716-.38691.02044-.761.03247-1.12891.0661H22.53973c-.39685-.04431-.8805-.04431-1.3656-.08673-.13178.04242-.17664.17389-.22156.34649a.492.492,0,0,0,.08978.43244l.52856.04388a7.93457,7.93457,0,0,1,1.45533.38953,1.29038,1.29038,0,0,1,.61548.86535A5.485,5.485,0,0,1,23.73,42.00763q-.06738,1.36192-.13177,3.24377c-.04486,1.257-.13318,2.55444-.22156,3.89539-.08685,2.07513-.27661,7.129-.8515,8.62487a1.23658,1.23658,0,0,1-.61688.69513,3.82824,3.82824,0,0,1-1.10346.30262l-.70813.08691c-.13031.08545-.17523.21576-.13031.433a.52442.52442,0,0,0,.17523.38953c.57343-.04346,1.10346-.08685,1.67688-.13031H25.3056c.66174.04346,1.23669.08685,1.76519.13031a.45307.45307,0,0,0,.22156-.38953.54509.54509,0,0,0-.1781-.433L25.879,58.76941a1.81681,1.81681,0,0,1-.92682-.30262.94653.94653,0,0,1-.265-.35626,6.50168,6.50168,0,0,1-.252-2.301c.02753-1.341.04493-2.68189.08838-4.02283q.0651-2.01361.13031-3.50586c.04346-.908.13471-1.86078.1767-2.8122q.06729-1.42712.13324-2.85565h.08685c.35333.7356.70667,1.47125,1.01514,2.29236.35327.779.7052,1.55811,1.05713,2.29523l2.95263,6.18481q.39972.78195.92536,1.94769c.39679.82251.792,1.60016,1.14545,2.37928.18682.41266.349.79785.4851,1.16137a7.63244,7.63244,0,0,1,.30988.89057.44371.44371,0,0,0,.61835,0c.27374-.64441.56042-1.29749.879-1.92163.83411-1.83911,1.70441-3.59564,2.68769-5.36377l2.86578-5.58246C40.21233,46.42,40.43243,45.90014,40.7409,45.33825Z" fill="#e20613"/></svg>